<?xml version="1.0" encoding="UTF-8" standalone="no"?>
<!-- Created with Inkscape (http://www.inkscape.org/) -->

<svg
   xmlns:dc="http://purl.org/dc/elements/1.1/"
   xmlns:cc="http://creativecommons.org/ns#"
   xmlns:rdf="http://www.w3.org/1999/02/22-rdf-syntax-ns#"
   xmlns:svg="http://www.w3.org/2000/svg"
   xmlns="http://www.w3.org/2000/svg"
   xmlns:xlink="http://www.w3.org/1999/xlink"
   xmlns:sodipodi="http://sodipodi.sourceforge.net/DTD/sodipodi-0.dtd"
   xmlns:inkscape="http://www.inkscape.org/namespaces/inkscape"
   width="210mm"
   height="297mm"
   viewBox="0 0 210 297"
   version="1.1"
   id="svg8"
   sodipodi:docname="logo.svg"
   inkscape:version="0.92.4 (5da689c313, 2019-01-14)">
  <defs
     id="defs2">
    <linearGradient
       inkscape:collect="always"
       id="linearGradient887">
      <stop
         style="stop-color:#ffffff;stop-opacity:1"
         offset="0"
         id="stop883" />
      <stop
         style="stop-color:#ffffff;stop-opacity:0"
         offset="1"
         id="stop885" />
    </linearGradient>
    <linearGradient
       inkscape:collect="always"
       xlink:href="#linearGradient887"
       id="linearGradient889"
       x1="-56.622715"
       y1="198.38117"
       x2="78.314785"
       y2="198.38117"
       gradientUnits="userSpaceOnUse"
       gradientTransform="translate(-183.65663,-236.24626)" />
    <clipPath
       clipPathUnits="userSpaceOnUse"
       id="clipPath921">
      <circle
         inkscape:export-ydpi="34.439999"
         inkscape:export-xdpi="34.439999"
         style="opacity:1;fill:none;fill-opacity:1;stroke:#0086d2;stroke-width:5.38838625;stroke-linecap:butt;stroke-linejoin:round;stroke-miterlimit:4;stroke-dasharray:none;stroke-dashoffset:0;stroke-opacity:1"
         id="circle923"
         cx="106.68609"
         cy="118.32769"
         r="44.501461"
         transform="rotate(133.27118)" />
    </clipPath>
  </defs>
  <sodipodi:namedview
     id="base"
     pagecolor="#ffffff"
     bordercolor="#666666"
     borderopacity="1.0"
     inkscape:pageopacity="0.0"
     inkscape:pageshadow="2"
     inkscape:zoom="0.35"
     inkscape:cx="-440.23037"
     inkscape:cy="382.51277"
     inkscape:document-units="mm"
     inkscape:current-layer="layer1"
     showgrid="false"
     inkscape:snap-global="true"
     inkscape:window-width="2560"
     inkscape:window-height="1417"
     inkscape:window-x="5552"
     inkscape:window-y="-8"
     inkscape:window-maximized="1" />
  <metadata
     id="metadata5">
    <rdf:RDF>
      <cc:Work
         rdf:about="">
        <dc:format>image/svg+xml</dc:format>
        <dc:type
           rdf:resource="http://purl.org/dc/dcmitype/StillImage" />
      </cc:Work>
    </rdf:RDF>
  </metadata>
  <g
     inkscape:label="Layer 1"
     inkscape:groupmode="layer"
     id="layer1">
    <circle
       style="opacity:1;fill:#6ecaff;fill-opacity:1;stroke:none;stroke-width:5.38838625;stroke-linecap:butt;stroke-linejoin:round;stroke-miterlimit:4;stroke-dasharray:none;stroke-dashoffset:0;stroke-opacity:1"
       id="path862"
       cx="106.68609"
       cy="118.32769"
       r="44.501461" />
    <g
       id="g917">
      <path
         inkscape:transform-center-y="-0.4154694"
         inkscape:transform-center-x="1.2309524e-06"
         d="m 90.449463,140.50982 1.278677,2.59089 2.85921,0.41547 -2.068943,2.01672 0.488411,2.84765 -2.557355,-1.34448 -2.557355,1.34448 0.488411,-2.84765 -2.068944,-2.01672 2.85921,-0.41547 z"
         inkscape:randomized="0"
         inkscape:rounded="0"
         inkscape:flatsided="false"
         sodipodi:arg2="-0.9424778"
         sodipodi:arg1="-1.5707963"
         sodipodi:r2="2.1754162"
         sodipodi:r1="4.3508325"
         sodipodi:cy="144.86066"
         sodipodi:cx="90.449461"
         sodipodi:sides="5"
         id="path895"
         style="opacity:0.46200005;fill:#0099f1;fill-opacity:1;stroke:none;stroke-width:5;stroke-linecap:butt;stroke-linejoin:round;stroke-miterlimit:4;stroke-dasharray:none;stroke-dashoffset:0;stroke-opacity:1"
         sodipodi:type="star" />
      <path
         sodipodi:type="star"
         style="opacity:0.46200005;fill:#0099f1;fill-opacity:1;stroke:none;stroke-width:5;stroke-linecap:butt;stroke-linejoin:round;stroke-miterlimit:4;stroke-dasharray:none;stroke-dashoffset:0;stroke-opacity:1"
         id="path897"
         sodipodi:sides="5"
         sodipodi:cx="101.27388"
         sodipodi:cy="144.86066"
         sodipodi:r1="4.3508325"
         sodipodi:r2="2.1754162"
         sodipodi:arg1="-1.5707963"
         sodipodi:arg2="-0.9424778"
         inkscape:flatsided="false"
         inkscape:rounded="0"
         inkscape:randomized="0"
         d="m 101.27388,140.50982 1.27868,2.59089 2.85921,0.41547 -2.06895,2.01672 0.48842,2.84765 -2.55736,-1.34448 -2.557355,1.34448 0.488411,-2.84765 -2.068944,-2.01672 2.85921,-0.41547 z"
         inkscape:transform-center-x="1.2309524e-06"
         inkscape:transform-center-y="-0.4154694" />
      <path
         inkscape:transform-center-y="-0.4154694"
         inkscape:transform-center-x="1.2309524e-06"
         d="m 112.0983,140.50982 1.27867,2.59089 2.85921,0.41547 -2.06894,2.01672 0.48841,2.84765 -2.55735,-1.34448 -2.55736,1.34448 0.48841,-2.84765 -2.06894,-2.01672 2.85921,-0.41547 z"
         inkscape:randomized="0"
         inkscape:rounded="0"
         inkscape:flatsided="false"
         sodipodi:arg2="-0.9424778"
         sodipodi:arg1="-1.5707963"
         sodipodi:r2="2.1754162"
         sodipodi:r1="4.3508325"
         sodipodi:cy="144.86066"
         sodipodi:cx="112.0983"
         sodipodi:sides="5"
         id="path899"
         style="opacity:0.46200005;fill:#0099f1;fill-opacity:1;stroke:none;stroke-width:5;stroke-linecap:butt;stroke-linejoin:round;stroke-miterlimit:4;stroke-dasharray:none;stroke-dashoffset:0;stroke-opacity:1"
         sodipodi:type="star" />
      <path
         sodipodi:type="star"
         style="opacity:0.46200005;fill:#0099f1;fill-opacity:1;stroke:none;stroke-width:5;stroke-linecap:butt;stroke-linejoin:round;stroke-miterlimit:4;stroke-dasharray:none;stroke-dashoffset:0;stroke-opacity:1"
         id="path901"
         sodipodi:sides="5"
         sodipodi:cx="122.92271"
         sodipodi:cy="144.86066"
         sodipodi:r1="4.3508325"
         sodipodi:r2="2.1754162"
         sodipodi:arg1="-1.5707963"
         sodipodi:arg2="-0.9424778"
         inkscape:flatsided="false"
         inkscape:rounded="0"
         inkscape:randomized="0"
         d="m 122.92271,140.50982 1.27867,2.59089 2.85921,0.41547 -2.06894,2.01672 0.48841,2.84765 -2.55735,-1.34448 -2.55736,1.34448 0.48841,-2.84765 -2.06894,-2.01672 2.85921,-0.41547 z"
         inkscape:transform-center-x="1.2309524e-06"
         inkscape:transform-center-y="-0.4154694" />
    </g>
    <path
       style="fill:#39b7ff;stroke:none;stroke-width:0.26458332px;stroke-linecap:butt;stroke-linejoin:miter;stroke-opacity:1;fill-opacity:1"
       d="m 74.650297,107.06696 35.718753,-32.694938 17.95387,4.535715 14.1741,12.095239 6.4256,12.662204 2.26785,15.875 -14.00993,18.70549 z"
       id="path891"
       inkscape:connector-curvature="0" />
    <rect
       style="opacity:0.46200005;fill:url(#linearGradient889);fill-opacity:1;stroke:none;stroke-width:6.91042519;stroke-linecap:butt;stroke-linejoin:round;stroke-miterlimit:4;stroke-dasharray:none;stroke-dashoffset:0;stroke-opacity:1"
       id="rect879"
       width="134.9375"
       height="57.830357"
       x="-240.27936"
       y="-66.780266"
       transform="rotate(-133.27118)"
       clip-path="url(#clipPath921)" />
    <circle
       r="44.501461"
       cy="118.32769"
       cx="106.68609"
       id="circle893"
       style="opacity:1;fill:none;fill-opacity:1;stroke:#0086d2;stroke-width:5.38838625;stroke-linecap:butt;stroke-linejoin:round;stroke-miterlimit:4;stroke-dasharray:none;stroke-dashoffset:0;stroke-opacity:1"
       inkscape:export-xdpi="34.439999"
       inkscape:export-ydpi="34.439999" />
    <g
       id="g869">
      <path
         sodipodi:nodetypes="cccscsccsccsccccccccccccccscccccccccsscccccsccccc"
         inkscape:connector-curvature="0"
         id="path852"
         d="m 76.200614,138.18895 c -0.337095,-0.13915 -0.91507,-0.82619 -0.990791,-1.17776 -0.03234,-0.15014 -0.08228,-1.68623 -0.110978,-3.41355 -0.0287,-1.72731 -0.15237,-4.12985 -0.274819,-5.33897 -0.326282,-3.22186 -0.337904,-10.29036 -0.01949,-11.85534 0.470548,-2.31273 1.201394,-3.82633 2.383472,-4.93623 l 0.655953,-0.6159 -0.93617,-0.43531 c -1.580894,-0.73512 -2.561973,-1.97895 -2.320323,-2.94176 0.263463,-1.04972 2.370041,-1.8036 5.647421,-2.02103 l 1.252139,-0.0831 0.565303,0.76371 c 0.310916,0.42004 0.598015,0.7649 0.637997,0.76636 0.03998,0.001 0.286567,-0.54852 0.547968,-1.22217 0.668631,-1.72312 2.179487,-4.83384 3.11224,-6.40782 1.549334,-2.61444 2.686984,-3.44929 5.338496,-3.91753 1.967288,-0.34742 5.560751,-0.83849 7.573645,-1.035 2.317593,-0.22625 12.505923,-0.22625 14.823513,0 2.01289,0.19651 5.60635,0.68758 7.57364,1.035 2.56451,0.45288 3.77158,1.30083 5.17584,3.63593 0.93549,1.55559 2.54229,4.84188 3.23873,6.62398 l 0.55128,1.41064 0.61808,-0.82741 0.61807,-0.82741 1.20426,0.0756 c 3.25146,0.20406 5.43206,0.98139 5.69531,2.03023 0.23925,0.95326 -0.66078,2.10735 -2.25903,2.89671 l -0.99747,0.49264 0.61554,0.56351 c 1.12405,1.02904 1.89862,2.57161 2.36372,4.70743 0.48422,2.22359 0.4426,7.98216 -0.099,13.69453 -0.0983,1.0364 -0.17882,3.06016 -0.17903,4.49726 -3.7e-4,2.81291 -0.035,2.9939 -0.68947,3.60543 l -0.33612,0.31405 h -5.1303 -5.1303 l -0.33611,-0.31405 c -0.49471,-0.46224 -0.68912,-0.91663 -0.68912,-1.61063 v -0.61813 l -0.84795,-0.0786 c -3.47996,-0.32236 -6.7751,-0.39199 -18.49798,-0.39087 -11.792929,9.5e-4 -14.318081,0.0556 -18.183927,0.39229 l -0.910766,0.0793 v 0.61702 c 0,0.69288 -0.194558,1.14738 -0.688988,1.60954 l -0.335991,0.31405 -4.983515,0.0256 c -2.740934,0.0141 -5.101187,-0.023 -5.245008,-0.0824 z"
         style="fill:#000000;stroke-width:0.12562296" />
      <path
         inkscape:connector-curvature="0"
         id="path826"
         d="m 100.88965,129.86435 c -0.73814,-0.22156 -1.593387,-0.88612 -4.123946,-3.20449 -1.160535,-1.06323 -2.206027,-1.93314 -2.32332,-1.93314 -0.117292,0 -0.213256,0.16131 -0.213256,0.35847 0,0.19714 -0.249562,0.59755 -0.554575,0.88977 -0.531197,0.50893 -0.643738,0.53132 -2.669352,0.53132 h -2.114779 v -7.11826 -7.11827 h 3.21842 3.218404 l 1.378806,-1.3992 c 2.246603,-2.27986 1.692384,-2.15993 9.981978,-2.15993 5.79878,0 7.23601,0.0529 7.66991,0.28209 0.29365,0.15516 1.19904,0.95598 2.01195,1.77957 l 1.47802,1.49747 h 3.31692 3.31692 v 7.11827 7.11826 h -2.13803 c -2.0844,0 -2.15136,-0.0139 -2.66935,-0.55458 -0.29223,-0.30501 -0.53132,-0.70541 -0.53132,-0.88978 0,-0.2863 -0.22365,-0.3352 -1.53274,-0.3352 h -1.53274 l -0.44721,0.84299 c -0.24596,0.46364 -0.91315,1.34521 -1.48263,1.95903 -1.12654,1.21427 -2.14199,1.65297 -3.29315,1.42273 -0.51561,-0.10312 -0.73293,-0.028 -1.19212,0.41189 -0.79863,0.76514 -2.64352,0.93751 -3.65388,0.34137 -0.69859,-0.41219 -0.70349,-0.41228 -1.54405,-0.0307 -0.88826,0.40318 -2.56792,0.49262 -3.57488,0.19038 z m 3.36978,-3.47196 c 0.95888,-1.00072 0.77285,-1.02155 2.31396,0.25907 0.42739,0.35516 0.93378,0.64574 1.12533,0.64574 0.19154,0 0.73047,-0.48938 1.19761,-1.08751 0.46715,-0.59814 0.91044,-1.08752 0.9851,-1.08752 0.0747,0 0.40008,0.22246 0.72319,0.49434 0.32311,0.27187 0.70809,0.49398 0.85553,0.49356 0.30638,-8.4e-4 1.75102,-1.71073 1.75102,-2.07249 0,-0.13152 -1.35845,-1.34606 -3.01876,-2.69899 l -3.01877,-2.45984 -0.83632,0.63787 c -1.1044,0.84235 -2.30963,1.03007 -3.56469,0.55521 -1.67388,-0.63332 -2.807137,-2.18657 -2.807137,-3.84748 0,-1.23317 0.423257,-2.00908 1.839997,-3.37299 l 1.42033,-1.36738 -1.58595,-0.003 -1.58596,-0.003 -1.771327,1.77957 -1.771321,1.77957 h -1.141067 -1.141067 v 3.46027 3.46026 h 0.756845 c 0.683772,0 0.985108,0.20525 3.120852,2.1256 3.620025,3.25495 3.561725,3.2131 4.476015,3.2131 0.70343,0 0.92335,-0.11867 1.67659,-0.9048 z M 92.352447,124.1307 c 0.183953,-0.29764 -0.07264,-0.93276 -0.432589,-1.0709 -0.921869,-0.35375 -1.614199,0.69599 -0.861157,1.30574 0.440444,0.35666 0.989817,0.25692 1.293746,-0.23484 z m 30.252623,0 c 0.18395,-0.29764 -0.0726,-0.93276 -0.43259,-1.0709 -0.92187,-0.35375 -1.61418,0.69599 -0.86116,1.30574 0.44045,0.35666 0.98982,0.25692 1.29375,-0.23484 z m -3.46202,-5.63246 v -3.46028 h -1.23993 -1.23993 l -1.77132,-1.77956 -1.77132,-1.77956 h -2.82051 -2.82053 l -1.53365,1.35517 c -3.33938,2.95078 -3.53879,3.23461 -2.90656,4.13725 0.20982,0.29956 0.51069,0.43946 0.94512,0.43946 0.52335,0 0.96698,-0.30054 2.4809,-1.6807 1.01398,-0.92439 1.96476,-1.6807 2.11282,-1.6807 0.43376,0 1.66708,1.19239 1.66708,1.61175 0,0.21144 -0.22251,0.59066 -0.49449,0.84271 l -0.49449,0.45828 3.01555,2.49204 3.01554,2.49205 1.92786,0.006 1.92786,0.006 z"
         style="fill:#ffffff;stroke-width:0.19772959" />
      <g
         transform="translate(48.002976,-31.75)"
         id="g860">
        <circle
           style="opacity:1;fill:#ffffff;fill-opacity:1;stroke:none;stroke-width:0.132;stroke-linecap:butt;stroke-linejoin:round;stroke-miterlimit:4;stroke-dasharray:none;stroke-dashoffset:0;stroke-opacity:1"
           id="path854"
           cx="34.076862"
           cy="153.209"
           r="3.3408689" />
        <circle
           r="3.3408689"
           cy="153.209"
           cx="83.28936"
           id="circle856"
           style="opacity:1;fill:#ffffff;fill-opacity:1;stroke:none;stroke-width:0.132;stroke-linecap:butt;stroke-linejoin:round;stroke-miterlimit:4;stroke-dasharray:none;stroke-dashoffset:0;stroke-opacity:1" />
      </g>
    </g>
    <g
       id="g875"
       inkscape:export-xdpi="22.440001"
       inkscape:export-ydpi="22.440001"
       transform="translate(327.31876,137.40256)">
      <rect
         y="69.161003"
         x="-247.45665"
         height="72.451248"
         width="72.451248"
         id="rect871"
         style="opacity:1;fill:#f2f2f2;fill-opacity:0;stroke:none;stroke-width:0.12779596;stroke-linecap:butt;stroke-linejoin:miter;stroke-miterlimit:4;stroke-dasharray:none;stroke-dashoffset:0;stroke-opacity:1" />
      <path
         sodipodi:nodetypes="cccscccccccccccscccccscccccscccccccccccccccccccccccccccccccc"
         inkscape:connector-curvature="0"
         id="path833"
         d="m -211.2426,83.323667 c -3.12648,0 -6.25315,0.05637 -7.41195,0.169498 -2.01289,0.196511 -5.60641,0.68766 -7.5737,1.035079 -2.65151,0.468241 -3.78884,1.303149 -5.33817,3.91759 -0.93275,1.57398 -2.44384,4.684757 -3.11248,6.407877 -0.2614,0.673651 -0.50778,1.223147 -0.54776,1.222147 -0.04,-10e-4 -0.32729,-0.34632 -0.63821,-0.76636 l -0.56534,-0.763778 -1.25212,0.0832 c -3.27738,0.217429 -5.38374,0.970827 -5.6472,2.020548 -0.24165,0.96281 0.73938,2.20682 2.32027,2.94194 l 0.93586,0.435632 -0.65577,0.61547 c -1.18208,1.1099 -1.91277,2.62392 -2.38332,4.93665 -0.31841,1.56498 -0.30664,8.63322 0.0196,11.85509 0.12245,1.20912 0.2457,3.6119 0.2744,5.33921 0.0287,1.7273 0.0788,3.26308 0.11111,3.41322 0.0757,0.35159 0.65354,1.03856 0.99063,1.17771 0.14383,0.0594 2.50423,0.0963 5.24516,0.0822 l 4.98368,-0.0253 0.33589,-0.31419 c 0.49443,-0.46215 0.68885,-0.91632 0.68885,-1.6092 v -0.61702 l 0.91106,-0.0796 c 3.86584,-0.33669 6.39097,-0.39127 18.1839,-0.39222 11.72288,-10e-4 15.01762,0.0683 18.49758,0.39067 l 0.84801,0.0786 v 0.61856 c 0,0.694 0.19466,1.14801 0.68936,1.61024 l 0.3359,0.31419 h 5.13044 5.13043 l 0.3359,-0.31419 c 0.65447,-0.61152 0.68899,-0.79255 0.68936,-3.60546 2.1e-4,-1.4371 0.081,-3.4605 0.17932,-4.49689 0.5416,-5.71237 0.58292,-11.47118 0.0987,-13.69477 -0.4651,-2.13582 -1.23963,-3.67816 -2.36368,-4.7072 l -0.61547,-0.56379 0.99736,-0.492482 c 1.59825,-0.78936 2.49854,-1.94372 2.25929,-2.89698 -0.26325,-1.04884 -2.4438,-1.825789 -5.69526,-2.029848 l -1.20458,-0.07597 -0.61805,0.827855 -0.61804,0.827343 -0.55088,-1.410771 c -0.69644,-1.782098 -2.30358,-5.068294 -3.23907,-6.623883 -1.40426,-2.335101 -2.61141,-3.183075 -5.17592,-3.635954 -1.96729,-0.347419 -5.5608,-0.838568 -7.57369,-1.035079 -1.1588,-0.113126 -4.28496,-0.169498 -7.41144,-0.169498 z m -24.59488,23.970083 c 1.84512,-1e-5 3.34089,1.49576 3.34088,3.34088 1e-5,1.84512 -1.49576,3.34089 -3.34088,3.34088 -1.84512,1e-5 -3.34089,-1.49576 -3.34088,-3.34088 -1e-5,-1.84512 1.49576,-3.34089 3.34088,-3.34088 z m 49.2125,0 c 1.84512,-1e-5 3.34089,1.49576 3.34088,3.34088 1e-5,1.84512 -1.49576,3.34089 -3.34088,3.34088 -1.84512,1e-5 -3.34089,-1.49576 -3.34088,-3.34088 -1e-5,-1.84512 1.49576,-3.34089 3.34088,-3.34088 z"
         style="fill:#5d7b88;fill-opacity:1;stroke-width:0.12562296" />
    </g>
  </g>
</svg>
